# xmcd
#
# Track frame offsets: 
#        150
#        21126
#        35936
#        51515
#        63624
#        74446
#        90078
#        97131
#        107735
#        127680
#        138000
#        144554
#
# Disc length: 2192 seconds
#
# Revision: 2
# Processed by: cddbd v1.5.1PL0 Copyright (c) Steve Scherf et al.
# Submitted via: ExactAudioCopy v0.95a5
#
DISCID=aa088e0c
DTITLE=Spiderbait - Tonight Alright
DYEAR=2004
DGENRE=Rock
TTITLE0=Take Me Back
TTITLE1=Live In A Box
TTITLE2=Black Betty
TTITLE3=Put It Down
TTITLE4=Fucken Awesome
TTITLE5=5th Set
TTITLE6=The Dog
TTITLE7=Cows
TTITLE8=Tonite
TTITLE9=Alright
TTITLE10=In This City
TTITLE11=Picky
EXTD=YEAR: 2004
EXTT0=
EXTT1=
EXTT2=
EXTT3=
EXTT4=
EXTT5=
EXTT6=
EXTT7=
EXTT8=
EXTT9=
EXTT10=
EXTT11=
PLAYORDER=
